<?xml version="1.0"?>
<svg xmlns="http://www.w3.org/2000/svg" viewBox="0 0 64 64" width="512" height="512"><g id="Turbo"><path d="M60.976,17.234a3.326,3.326,0,0,0-4.622,0,1.356,1.356,0,0,1-2.045,0A3.28,3.28,0,0,0,52,16.3v2a1.36,1.36,0,0,1,1.021.465,3.322,3.322,0,0,0,4.62,0,1.358,1.358,0,0,1,2.048,0A3.29,3.29,0,0,0,62,19.7v-2A1.362,1.362,0,0,1,60.976,17.234Z"/><path d="M58.665,22.3a3.29,3.29,0,0,0-2.311.934,1.356,1.356,0,0,1-2.045,0A3.28,3.28,0,0,0,52,22.3v2a1.36,1.36,0,0,1,1.021.465,3.322,3.322,0,0,0,4.62,0,1.358,1.358,0,0,1,2.048,0A3.29,3.29,0,0,0,62,25.7v-2a1.362,1.362,0,0,1-1.024-.466A3.29,3.29,0,0,0,58.665,22.3Z"/><path d="M49,12H45a1,1,0,0,0-1,1H41a1,1,0,0,0-1,1H24.756l-.544-4.379A3.016,3.016,0,0,0,21.23,7H18.77a3.016,3.016,0,0,0-2.982,2.626l-.629,5.054a17.965,17.965,0,0,0-8.011,29.9l-1.985,4.7a3.015,3.015,0,0,0,1.272,3.761l2.13,1.229a2.981,2.981,0,0,0,1.5.4,3.017,3.017,0,0,0,2.4-1.184l3.074-4.065A17.956,17.956,0,0,0,36.955,26H40a1,1,0,0,0,1,1h3a1,1,0,0,0,1,1h4a1,1,0,0,0,1-1V13A1,1,0,0,0,49,12ZM17.771,9.879a1.012,1.012,0,0,1,1-.879h2.46a1.01,1.01,0,0,1,1,.874L22.741,14H20a17.941,17.941,0,0,0-2.77.236Zm-6.9,42.392a1.007,1.007,0,0,1-1.3.262L7.435,51.3a1.01,1.01,0,0,1-.428-1.255L8.717,46a18,18,0,0,0,4.8,2.768ZM20,24a8.028,8.028,0,1,0,5.274,2H34.81A15.8,15.8,0,0,1,36,32,16,16,0,1,1,20,16H40v8Zm6,8a5.961,5.961,0,0,1-1.115,3.471L22.7,33.285a2.956,2.956,0,0,0,.277-1.049l3-.8C25.989,31.622,26,31.81,26,32ZM14,32a5.961,5.961,0,0,1,1.115-3.471L17.3,30.715a2.956,2.956,0,0,0-.277,1.049l-3,.8C14.011,32.378,14,32.19,14,32Zm6.564-5.971-.8,3a2.956,2.956,0,0,0-1.049.277l-2.186-2.186A5.961,5.961,0,0,1,20,26C20.19,26,20.378,26.011,20.564,26.029ZM20,33a1,1,0,1,1,1-1A1,1,0,0,1,20,33Zm-2.468.7a3.022,3.022,0,0,0,.769.769l-.8,2.982a6.034,6.034,0,0,1-2.955-2.955Zm2.7,1.277a2.956,2.956,0,0,0,1.049-.277l2.186,2.186A5.961,5.961,0,0,1,20,38c-.19,0-.378-.011-.564-.029ZM22.468,30.3a3.022,3.022,0,0,0-.769-.769l.8-2.982a6.034,6.034,0,0,1,2.955,2.955ZM42,25V15h2V25Zm6,1H46V14h2Z"/><path d="M2.716,18.384l1.573,1.237a19.927,19.927,0,0,1,9.2-6.532l-.652-1.89A21.926,21.926,0,0,0,2.716,18.384Z"/><path d="M20,52v2a21.831,21.831,0,0,0,15.714-6.6L34.286,46A19.853,19.853,0,0,1,20,52Z"/><path d="M12.187,9.307l-.652-1.89a26.044,26.044,0,0,0-10.6,6.9L2.4,15.678A24.065,24.065,0,0,1,12.187,9.307Z"/><path d="M20,56v2a25.786,25.786,0,0,0,18.72-7.957l-1.439-1.388A23.8,23.8,0,0,1,20,56Z"/><path d="M21.848,43.859A12.116,12.116,0,0,1,20,44v2a14.064,14.064,0,0,0,2.153-.165Z"/><path d="M32.422,38.463l-1.774-.924a12.1,12.1,0,0,1-7.073,5.92l.594,1.909A14.1,14.1,0,0,0,32.422,38.463Z"/><rect x="9" y="48.32" width="2" height="2" transform="translate(-37.714 33.325) rotate(-60.005)"/><rect x="19" y="11" width="2" height="2"/></g></svg>
